<mxfile host="app.diagrams.net" modified="2024-02-21T17:00:18.743Z" agent="Mozilla/5.0 (Macintosh; Intel Mac OS X 10_15_7) AppleWebKit/537.36 (KHTML, like Gecko) Chrome/114.0.0.0 Safari/537.36" etag="IXDr3S7NeSVe214KhYOg" version="23.1.5" type="github">
  <diagram name="Page-1" id="fis036cBP_AsAPjzbCih">
    <mxGraphModel dx="880" dy="378" grid="1" gridSize="10" guides="1" tooltips="1" connect="1" arrows="1" fold="1" page="1" pageScale="1" pageWidth="850" pageHeight="1100" math="0" shadow="0">
      <root>
        <mxCell id="0" />
        <mxCell id="1" parent="0" />
        <mxCell id="KlpaetSHlM4F502tKvAc-24" value="Rectangle" style="swimlane;whiteSpace=wrap;html=1;startSize=23;" vertex="1" parent="1">
          <mxGeometry x="340" y="70" width="330" height="250" as="geometry">
            <mxRectangle x="340" y="70" width="140" height="30" as="alternateBounds" />
          </mxGeometry>
        </mxCell>
        <mxCell id="KlpaetSHlM4F502tKvAc-26" value="width: double&lt;br&gt;height: double" style="whiteSpace=wrap;html=1;" vertex="1" parent="KlpaetSHlM4F502tKvAc-24">
          <mxGeometry y="30" width="330" height="70" as="geometry" />
        </mxCell>
        <mxCell id="KlpaetSHlM4F502tKvAc-29" value="Rectangle()&lt;br&gt;Rectangle(newHeight: double, newWidth: double)&lt;br&gt;getArea(): double&lt;br&gt;getPerimeter(): double" style="whiteSpace=wrap;html=1;" vertex="1" parent="KlpaetSHlM4F502tKvAc-24">
          <mxGeometry y="110" width="330" height="130" as="geometry" />
        </mxCell>
      </root>
    </mxGraphModel>
  </diagram>
</mxfile>
